<?xml version="1.0" standalone="no"?>
<!DOCTYPE svg PUBLIC "-//W3C//DTD SVG 20010904//EN"
 "http://www.w3.org/TR/2001/REC-SVG-20010904/DTD/svg10.dtd">
<svg version="1.0" xmlns="http://www.w3.org/2000/svg"
 width="1793.000000pt" height="1793.000000pt" viewBox="0 0 1793.000000 1793.000000"
 preserveAspectRatio="xMidYMid meet">
<metadata>
Created by potrace 1.14, written by Peter Selinger 2001-2017
</metadata>
<g transform="translate(0.000000,1793.000000) scale(0.100000,-0.100000)"
fill="#000000" stroke="none">
<path d="M8545 17644 c-27 -2 -120 -8 -205 -14 -1825 -127 -3579 -846 -5001
-2051 -856 -726 -1571 -1628 -2102 -2649 -188 -363 -335 -713 -503 -1199 -283
-818 -435 -1709 -451 -2646 -14 -808 108 -1734 327 -2496 222 -770 502 -1412
920 -2109 373 -623 771 -1132 1285 -1645 430 -429 643 -608 1165 -976 465
-328 854 -552 1370 -791 862 -398 1790 -651 2740 -747 341 -35 584 -44 1012
-38 599 8 1001 50 1563 162 1350 271 2549 819 3641 1666 499 387 1019 896
1403 1374 426 529 741 1016 1030 1595 278 557 449 1004 611 1595 182 668 275
1283 301 2003 21 563 -11 1011 -127 1777 -63 413 -141 729 -300 1216 -285 872
-685 1656 -1219 2389 -313 428 -563 718 -961 1110 -360 355 -713 647 -1139
944 -626 437 -1466 856 -2183 1090 -716 234 -1306 355 -2047 422 -168 15 -989
28 -1130 18z m2511 -4018 c285 -879 532 -1914 709 -2976 85 -508 107 -678 101
-765 -24 -333 -257 -530 -605 -512 -294 15 -471 150 -535 407 -9 36 -27 176
-41 310 -126 1212 -310 2450 -508 3410 -25 118 -44 216 -42 218 7 8 231 43
363 57 205 21 220 22 370 21 l134 -1 54 -169z m1433 -1251 c203 -50 396 -126
646 -254 385 -198 714 -434 1019 -731 574 -559 934 -1211 1085 -1966 140 -697
93 -1410 -136 -2078 -413 -1205 -1431 -2180 -2728 -2611 -1380 -460 -2828
-228 -3905 625 -818 648 -1317 1466 -1449 2376 -107 729 24 1517 378 2281 326
703 840 1355 1396 1769 256 190 509 317 750 375 369 88 689 -144 712 -517 7
-112 -13 -213 -60 -299 -46 -82 -215 -230 -567 -495 -353 -265 -421 -320 -557
-442 -173 -155 -319 -328 -429 -509 -344 -563 -500 -1273 -404 -1834 106 -621
349 -1139 733 -1564 453 -501 1140 -852 1852 -947 158 -21 567 -24 725 -5 680
79 1257 321 1750 734 594 497 974 1173 1087 1932 27 184 24 573 -5 760 -70
449 -243 866 -511 1235 -381 525 -887 888 -1576 1130 -170 60 -210 83 -296
169 -127 127 -185 278 -177 461 11 235 145 390 371 430 71 12 181 3 296 -25z"/>
</g>
</svg>
